<?xml version="1.0" standalone="no"?>
<!DOCTYPE svg PUBLIC "-//W3C//DTD SVG 1.1//EN" "http://www.w3.org/Graphics/SVG/1.1/DTD/svg11.dtd" >
<svg xmlns="http://www.w3.org/2000/svg" xmlns:xlink="http://www.w3.org/1999/xlink" version="1.1">
<metadata>
Created by FontForge 20170910 at Sun May 11 08:38:31 2008
 By Jimmy Wärting
1.0 ?1993 E. Leach
</metadata>
<defs>
<font id="Franks" horiz-adv-x="712" >
  <font-face 
    font-family="Franks"
    font-weight="5"
    font-stretch="normal"
    units-per-em="1300"
    panose-1="0 0 0 0 0 0 0 0 0 0"
    ascent="1100"
    descent="-200"
    x-height="800"
    cap-height="1000"
    bbox="-4 -176 1275 1100"
    underline-thickness="20"
    underline-position="-143"
    unicode-range="U+0020-2122"
  />
<missing-glyph horiz-adv-x="1100" 
d="M68 0v1100h964v-1100h-964zM964 68v964h-828v-964h828z" />
    <glyph glyph-name=".notdef" horiz-adv-x="1100" 
d="M68 0v1100h964v-1100h-964zM964 68v964h-828v-964h828z" />
    <glyph glyph-name="glyph1" horiz-adv-x="0" 
 />
    <glyph glyph-name="glyph2" horiz-adv-x="650" 
 />
    <glyph glyph-name="space" unicode=" " horiz-adv-x="650" 
 />
    <glyph glyph-name="space" unicode="&#xa0;" horiz-adv-x="650" 
 />
    <glyph glyph-name="exclam" unicode="!" horiz-adv-x="346" 
d="M328 539q0 -74 -44.5 -117.5t-111.5 -43.5q-68 0 -111 42q-46 45 -46 119v291q0 73 45.5 118.5t111.5 45.5t111 -45t45 -119v-291zM330 169q0 -63 -44.5 -107.5t-107.5 -44.5t-108 44t-45 108q0 63 45 108t108 45t107.5 -44.5t44.5 -108.5z" />
    <glyph glyph-name="quotedbl" unicode="&#x22;" horiz-adv-x="715" 
d="M645 894l-1 -181q0 -70 -38.5 -115t-102.5 -45q-63 0 -100 46t-37 116v178q0 71 37 118.5t99 47.5q63 0 103 -48.5t40 -116.5zM315 894l-1 -181q0 -70 -38.5 -115t-102.5 -45q-63 0 -100 46t-37 116v178q0 71 37 118.5t99 47.5q63 0 103 -48.5t40 -116.5z" />
    <glyph glyph-name="dollar" unicode="$" horiz-adv-x="625" 
d="M595 711q0 -43 -30.5 -73.5t-74.5 -30.5q-15 0 -31 5.5t-39 17.5t-46 17t-42 10q-15 2 -24.5 -2.5t-9.5 -14.5q0 -15 32 -25h4q41 -13 48 -16q26 -10 62 -27l64 -41q33 -30 50.5 -67t17.5 -86q0 -78 -45 -139.5t-129 -88.5l1 -25q0 -52 -30.5 -88.5t-74.5 -36.5t-75 36
t-31 89v16q-42 6 -79 21q-26 10 -49 23q-29 12 -46.5 38.5t-17.5 58.5q0 43 32 80t76 44q6 1 18 1q41 0 64 -18q7 -3 41 -22q23 -13 40 -13t24 2t7 15q0 9 -7 14q-4 3 -42 16q-6 2 -14 3t-10 2q-52 17 -85 35q-43 23 -68 53q-23 23 -37 57t-14 73q0 74 42.5 135t124.5 89v27
q0 51 31 88t75 37t74.5 -36.5t30.5 -88.5v-17q33 -7 60 -18t61 -31q30 -10 50.5 -37.5t20.5 -60.5z" />
    <glyph glyph-name="ampersand" unicode="&#x26;" horiz-adv-x="780" 
d="M724 41q-33 -38 -85 -38q-50 0 -88 35l-13 12q-41 -24 -86 -37t-94 -13q-141 0 -241 100t-100 241q0 53 15.5 102t46.5 93q-18 34 -27.5 72t-9.5 77q0 131 92 223t224 92q112 0 199 -71.5t109 -179.5q3 -12 3 -20q-1 -11 -1 -16q0 -49 -34.5 -83.5t-83.5 -34.5
q-45 0 -78 28t-38 63.5t-26.5 54.5t-49.5 19q-32 0 -54 -22t-22 -53q0 -33 21.5 -55.5t53.5 -22.5q35 0 59 -27.5t24 -66.5q0 -40 -26.5 -67.5t-63.5 -27.5h-5q-32 -4 -50.5 -25.5t-18.5 -51.5q0 -34 23 -58t59 -24q30 0 52.5 19t27.5 48q11 42 45 68.5t79 26.5q53 0 91 -38
t38 -91q0 -7 -0.5 -16.5t-3.5 -21.5l-4 -17l26 -23q21 -19 32.5 -44t11.5 -53q0 -44 -29 -76z" />
    <glyph glyph-name="quotesingle" unicode="'" horiz-adv-x="376" 
d="M315 894l-1 -181q0 -70 -38.5 -115t-102.5 -45q-63 0 -100 46t-37 116v178q0 71 37 118.5t99 47.5q63 0 103 -48.5t40 -116.5z" />
    <glyph glyph-name="parenleft" unicode="(" horiz-adv-x="385" 
d="M362 136q14 -31 14 -62q0 -52 -30 -90.5t-75 -38.5q-59 0 -116 60q-53 56 -81 137q-1 0 -17 59q-19 68 -32 137q-18 93 -18 151q0 92 33 235q11 48 34 126q27 76 85 134q62 61 120 61q44 0 73 -41.5t29 -93.5q0 -33 -11 -55q-17 -33 -33 -65q-38 -77 -62 -145
q-34 -97 -34 -161q0 -61 31 -150q24 -70 57 -136q16 -31 33 -62z" />
    <glyph glyph-name="parenright" unicode=")" horiz-adv-x="399" 
d="M370 489q0 -87 -33 -225q-11 -46 -34 -122q-28 -79 -81 -136q-58 -61 -116 -61q-44 0 -74.5 39.5t-30.5 90.5q0 30 14 61q16 30 32 61q37 75 58 135q31 89 31 152q0 66 -33 160q-26 74 -61 145q-18 33 -35 66q-5 10 -8 25.5t-3 29.5q0 53 28.5 94t73.5 41q58 0 120 -61
q58 -58 85 -134q1 0 17 -61q20 -74 32 -141q18 -97 18 -159z" />
    <glyph glyph-name="comma" unicode="," horiz-adv-x="426" 
d="M364 98l-68 -168q-43 -106 -136 -106q-27 0 -51 10q-40 16 -60.5 49.5t-20.5 75.5q0 37 15 75l68 167q22 52 57.5 81.5t81.5 29.5q22 0 46 -9q39 -16 60.5 -52t21.5 -80q0 -36 -14 -73z" />
    <glyph glyph-name="hyphen" unicode="-" horiz-adv-x="541" 
d="M169 657l181 -1q70 0 115 -38.5t45 -102.5q0 -63 -46 -100t-116 -37h-178q-71 0 -118.5 37t-47.5 99q0 63 48.5 103t116.5 40z" />
    <glyph glyph-name="period" unicode="." horiz-adv-x="409" 
d="M150 312q17 3 33 3q56 0 99.5 -34.5t55.5 -90.5q3 -17 3 -33q0 -55 -34.5 -98.5t-90.5 -55.5q-17 -3 -33 -3q-56 0 -99.5 34.5t-55.5 89.5q-3 17 -3 33q0 56 34.5 99.5t90.5 55.5z" />
    <glyph glyph-name="slash" unicode="/" horiz-adv-x="783" 
d="M739 799l-423 -811q-20 -42 -60 -66.5t-85 -24.5q-38 0 -71 17q-42 23 -65 63.5t-23 88.5q0 19 4 38t13 37l422 810q22 43 60.5 67.5t85.5 24.5q38 0 71 -17q41 -23 64.5 -64.5t23.5 -88.5q0 -37 -17 -74z" />
    <glyph glyph-name="zero" unicode="0" horiz-adv-x="885" 
d="M849 500q0 -207 -124.5 -353.5t-300.5 -146.5t-300.5 146.5t-124.5 353.5t124.5 353.5t300.5 146.5q177 0 301 -146t124 -354zM544 500q0 60 -36 111t-84 51q-49 0 -84.5 -50t-35.5 -112q0 -61 35.5 -110t84.5 -49t84.5 49t35.5 110z" />
    <glyph glyph-name="one" unicode="1" horiz-adv-x="514" 
d="M447 185q0 -75 -52.5 -127.5t-128.5 -52.5v-5h6v5q-75 0 -127 53t-52 127l-2 372q-39 34 -61 84.5t-22 107.5q0 101 72 173t173 72h19v6h-6v-6q75 0 128 -52t53 -127v-630z" />
    <glyph glyph-name="two" unicode="2" horiz-adv-x="740" 
d="M707 133q0 -61 -44 -97t-109 -36h-353q-66 0 -108 34q-45 37 -45 99v16l3 28q0 121 79 222q55 71 151 130q45 24 90 49q39 17 56.5 40.5t17.5 62.5t-26.5 65.5t-64.5 26.5q-33 0 -58 -20t-32 -52q-12 -42 -41.5 -67t-71.5 -25q-49 0 -83 34t-34 84q1 14 3.5 27.5
t7.5 25.5q33 97 117 158.5t189 61.5q134 0 228 -94t94 -228q0 -86 -62 -166q-47 -60 -135 -124l-82 -62q-22 -16 -45 -37q-8 -7 -22 -21h227q67 0 110 -29.5t43 -89.5v-16z" />
    <glyph glyph-name="three" unicode="3" horiz-adv-x="741" 
d="M708 341q0 -141 -100 -241t-241 -100q-117 0 -208 69t-120 177l-2 8q-1 5 -2 16.5t-1 21.5q0 53 37 91t91 38q44 0 78.5 -26.5t45.5 -68.5q6 -27 29.5 -47t51.5 -20q34 0 58 24t24 58q0 28 -19 50.5t-50 26.5h-5q-38 0 -64 27t-26 68q0 38 24 66t59 28q31 0 53 23t22 55
q0 31 -22 53t-54 22q-29 0 -50 -18t-26 -53.5t-38.5 -64.5t-77.5 -29q-50 0 -84 34t-34 84q-1 13 -1 21q0 3 2 15q23 109 109 180t200 71q131 0 223 -92t92 -223q0 -79 -36 -149q29 -42 45.5 -92.5t16.5 -102.5z" />
    <glyph glyph-name="four" unicode="4" horiz-adv-x="816" 
d="M627 966q-5 5 -43 16q-47 14 -79 14q-34 0 -75 -10.5t-48 -17.5q-47 -23 -69 -68l-254 -467q-18 -36 -18 -77q0 -33 12.5 -59.5t35.5 -40.5t41 -20.5t39 -6.5h280v-45q0 -73 33.5 -123t84.5 -60l21 -1q61 0 97.5 53t36.5 131v50q42 11 68 44t26 76t-26 75.5t-67 44.5
l-1 321q0 56 -26.5 103t-68.5 68zM449 478l-56 1l-30 -1l86 207v-207z" />
    <glyph glyph-name="five" unicode="5" horiz-adv-x="700" 
d="M668 310q0 -129 -92.5 -219.5t-223.5 -90.5q-103 0 -185.5 58.5t-114.5 152.5q-5 18 -7 25.5t-4 26.5q0 46 34 79t81 33q42 0 70.5 -23.5t40.5 -64.5q7 -29 31.5 -49t56.5 -20q36 0 63 26t27 62q0 68 -73 99q-18 11 -41 15.5t-51 4.5q-24 0 -65.5 -2.5t-49.5 -2.5
q-55 0 -94 43t-39 104v261q0 50 28 90t71 52q24 10 56 10h327q63 0 106.5 -39.5t43.5 -95.5q0 -55 -42.5 -86t-107.5 -31h-240v-115q10 2 37 4t41 2q132 0 224 -90t92 -219z" />
    <glyph glyph-name="six" unicode="6" horiz-adv-x="725" 
d="M697 355q1 -8 1 -16v-16q0 -132 -90 -230t-224 -110q-7 -1 -16 -1h-14q-132 0 -231 90t-110 223q-1 13 -1.5 22.5t-0.5 16.5q0 118 60 212q24 43 39 68q42 69 78 121q48 68 100 132q19 24 52 61q26 33 64 51t79 18q44 0 79 -23q28 -20 43.5 -50.5t15.5 -66.5
q0 -49 -29 -93l-111 -152q83 -25 145.5 -96t70.5 -161zM439 329q0 36 -28.5 58.5t-67.5 22.5q-31 0 -51.5 -28.5t-20.5 -67.5q0 -31 27 -52t60 -21q36 0 58.5 26.5t22.5 61.5z" />
    <glyph glyph-name="seven" unicode="7" horiz-adv-x="833" 
d="M791 838q3 -17 3 -34q0 -61 -33 -113l-383 -607q-26 -42 -62 -63t-77 -21q-47 0 -86 30l-5 3q-31 26 -47.5 64t-16.5 83q0 59 31 108l242 385h-175q-70 0 -120 47t-50 116l2 4q0 65 49.5 112.5t118.5 47.5h443q68 0 117 -46t49 -112v-4z" />
    <glyph glyph-name="eight" unicode="8" horiz-adv-x="750" 
d="M696 341q0 -141 -100 -241t-241 -100t-241 100t-100 241q0 55 16 103.5t46 91.5q-18 35 -27.5 72.5t-9.5 76.5q0 131 92 223t224 92q131 0 223 -92t92 -223q0 -79 -36 -149q29 -43 45.5 -92.5t16.5 -102.5zM431 685q0 31 -22 53t-54 22t-54 -22t-22 -53q0 -32 22 -54
t54 -22t54 22t22 54zM437 341q0 34 -24 58t-58 24t-58 -24t-24 -58t24 -58t58 -24t58 24t24 58z" />
    <glyph glyph-name="nine" unicode="9" horiz-adv-x="755" 
d="M128 220q-29 -42 -29 -93q0 -76 59 -117q35 -23 81 -23q87 0 141 69q32 37 51 61q62 76 101 132q32 46 77 120q15 25 40 68q60 95 60 214v19q-2 12 -2 18q-11 133 -110 223t-231 90q-20 0 -31 -1q-133 -11 -223 -109.5t-90 -230.5q0 -20 1 -31q0 -89 67 -163
q61 -68 149 -95zM449 670q0 -39 -20.5 -67.5t-51.5 -28.5q-40 0 -68 22t-28 59q0 34 22 60.5t59 26.5q33 0 60 -20.5t27 -51.5z" />
    <glyph glyph-name="colon" unicode=":" horiz-adv-x="409" 
d="M150 732q17 3 33 3q56 0 99.5 -34.5t55.5 -90.5q3 -17 3 -33q0 -55 -34.5 -98.5t-90.5 -55.5q-17 -3 -33 -3q-56 0 -99.5 34.5t-55.5 89.5q-3 17 -3 33q0 56 34.5 99.5t90.5 55.5zM150 357q17 3 33 3q56 0 99.5 -34.5t55.5 -90.5q3 -17 3 -33q0 -55 -34.5 -98.5
t-90.5 -55.5q-17 -3 -33 -3q-56 0 -99.5 34.5t-55.5 89.5q-3 17 -3 33q0 56 34.5 99.5t90.5 55.5z" />
    <glyph glyph-name="semicolon" unicode=";" horiz-adv-x="467" 
d="M401 589q3 -17 3 -33q0 -56 -34 -99t-91 -55q-14 -3 -17 -3q-7 -1 -17 -1q-55 0 -98.5 34.5t-55.5 90.5q-3 17 -3 33q0 56 34.5 99.5t90.5 55.5q17 3 33 3q56 0 99.5 -34.5t55.5 -90.5zM368 109l-63 -160q-42 -100 -128 -100q-25 0 -48 10q-38 15 -57 46.5t-19 72.5
q0 36 13 69l65 158q20 48 54 76t76 28q17 0 26 -2q4 -1 17 -6q38 -16 57.5 -49t19.5 -76q0 -16 -3 -33t-10 -34z" />
    <glyph glyph-name="question" unicode="?" horiz-adv-x="691" 
d="M660 683q0 -20 -9.5 -54.5t-25.5 -66t-40 -67.5q-18 -26 -29 -39q-40 -44 -116 -97q-82 -57 -112 -54h-6q-36 0 -68 33t-32 73q0 34 29 61q21 19 62 39q30 13 68 77t38 95q0 32 -22 54t-54 22q-29 0 -50 -18t-26 -54.5t-38.5 -65t-78.5 -28.5q-49 0 -83.5 34.5
t-34.5 84.5q-1 13 -1 21q0 3 2 15q23 109 109.5 180.5t200.5 71.5q131 0 224 -93t93 -224zM478 134q0 -56 -39 -95t-95 -39t-95.5 38.5t-39.5 95.5q0 56 39 95t96 39q56 0 95 -39t39 -95z" />
    <glyph glyph-name="A" unicode="A" horiz-adv-x="942" 
d="M893 260q8 -18 11 -35t3 -38q0 -56 -31.5 -104t-85.5 -69q-17 -7 -33.5 -10.5t-36.5 -3.5q-51 0 -96 27t-70 74h-176q-25 -46 -70.5 -73.5t-97.5 -27.5q-34 0 -70 14q-54 21 -85.5 69t-31.5 106q0 21 3 35.5t11 35.5l251 620q20 51 61.5 82t94.5 37q7 1 13 1h10
q56 0 105 -32.5t71 -87.5zM523 404l-43 110l-44 -110h87z" />
    <glyph glyph-name="B" unicode="B" horiz-adv-x="845" 
d="M805 288q0 -120 -84 -204t-204 -84h-347h-3q-65 0 -111 53t-46 129v636q0 74 46 128t111 54h327q104 0 176.5 -72.5t72.5 -176.5q0 -62 -27.5 -114t-75.5 -87q75 -36 120 -106t45 -156zM451 666q0 29 -20 49t-49 20h-57v-139h57q29 0 49 20t20 50zM461 321q0 32 -23 55
t-55 23h-59v-157h59q32 0 55 23t23 56z" />
    <glyph glyph-name="C" unicode="C" horiz-adv-x="1006" 
d="M924 834q37 -50 37 -111q0 -87 -68 -136q-42 -30 -95 -30q-75 0 -130 57q-47 44 -112 44q-18 0 -27 -2q-57 -10 -94 -55t-37 -102q0 -18 2 -27q10 -57 54.5 -93.5t102.5 -36.5q18 0 27 2q40 7 71 32q52 43 120 43q51 0 94 -29q32 -22 50.5 -59.5t18.5 -77.5
q0 -60 -35 -108l-6 -10q-51 -48 -116.5 -81.5t-138.5 -45.5q-48 -8 -88 -8q-181 0 -320 115.5t-171 297.5q-8 46 -8 88q0 181 115.5 320t297.5 171q24 4 44 6t45 2q105 0 198 -41.5t164 -117.5z" />
    <glyph glyph-name="D" unicode="D" horiz-adv-x="933" 
d="M909 500q0 -206 -145.5 -351.5t-351.5 -145.5l-232 -2l-13 -1q-62 0 -107 53t-45 128v638q0 75 44 128t108 53l242 -3q208 0 354 -145t146 -352zM576 500q0 68 -48 116t-116 48h-92v-328h92q68 0 116 48t48 116z" />
    <glyph glyph-name="E" unicode="E" horiz-adv-x="770" 
d="M533 -5h-318q-75 0 -128 52t-53 127v639q0 75 52.5 128.5t126.5 53.5h320q76 0 129 -47t53 -114q0 -66 -53 -113t-129 -47h-140v-61h78q63 0 105 -33.5t42 -88.5t-40.5 -85t-106.5 -30h-78v-60h140q76 0 129 -47t53 -113t-53.5 -113.5t-128.5 -47.5z" />
    <glyph glyph-name="F" unicode="F" horiz-adv-x="749" 
d="M383 613h78q62 0 104.5 -35.5t42.5 -91.5q0 -54 -41.5 -83t-105.5 -29h-78v-192q0 -76 -52 -129t-127 -53t-127.5 53.5t-52.5 128.5v639q0 75 53 127t128 52h318q76 0 129 -47t53 -114q0 -66 -53 -113t-129 -47h-140v-66z" />
    <glyph glyph-name="G" unicode="G" horiz-adv-x="1020" 
d="M971 481q0 -209 -129 -345t-335 -136q-207 0 -353.5 146.5t-146.5 353.5t146.5 353.5t353.5 146.5q90 0 172 -30.5t149 -85.5q29 -22 45.5 -55.5t16.5 -72.5q0 -66 -46.5 -112.5t-112.5 -46.5q-32 0 -57.5 10.5t-48.5 32.5q-53 46 -122 46q-77 0 -131 -54t-54 -131
q0 -78 54 -132t131 -54q41 0 76.5 16.5t62.5 47.5h-138q-38 0 -65 27t-27 65t26.5 65.5t65.5 27.5h375q35 0 61.5 -24t30.5 -59z" />
    <glyph glyph-name="H" unicode="H" horiz-adv-x="899" 
d="M467 376v-196q0 -74 52 -127t126 -53t126 53t52 127v634q0 74 -52 127t-126 53t-126 -53t-52 -127v-202h-105v208q0 74 -52 127t-126 53t-126 -53t-52 -127v-634q0 -74 52 -127t126 -53t126 53t52 127v188v2h105h-105h105z" />
    <glyph glyph-name="I" unicode="I" horiz-adv-x="424" 
d="M392 181q0 -75 -52 -128t-127 -53q-74 0 -126.5 52.5t-52.5 128.5v638q0 75 52 128t127 53q74 0 126.5 -52.5t52.5 -128.5v-638z" />
    <glyph glyph-name="J" unicode="J" horiz-adv-x="911" 
d="M829 420q0 -172 -121 -296t-293 -124q-173 0 -294 115t-121 285q0 73 52 126t126 53t126 -53t52 -127v-18q0 -26 15.5 -38t43.5 -12q24 0 41.5 19.5t17.5 46.5v423q0 75 51.5 127.5t125.5 52.5t126 -53t52 -127v-400z" />
    <glyph glyph-name="K" unicode="K" horiz-adv-x="836" 
d="M367 295l115 -207q23 -42 63 -65t86 -23q42 0 81 22t61.5 60.5t22.5 84.5q0 44 -21 83l-191 345l135 117q33 29 50 65.5t17 76.5q0 57 -35 96q-44 50 -115 50q-70 0 -125 -49l-145 -131q0 74 -52 127t-126 53t-126.5 -52.5t-52.5 -127.5v-628q0 -75 52 -128t127 -53
q74 0 126 53t52 128v105z" />
    <glyph glyph-name="L" unicode="L" horiz-adv-x="744" 
d="M362 321v498q0 75 -52 128t-127 53q-74 0 -126.5 -52.5t-52.5 -128.5v-638q0 -75 52 -128t127 -53h316q75 0 128 47t53 115q0 66 -52.5 112.5t-128.5 46.5h-136h-1z" />
    <glyph glyph-name="M" unicode="M" horiz-adv-x="1081" 
d="M1038 218q3 -20 3 -37q0 -65 -34.5 -113.5t-90.5 -58.5q-16 -2 -24 -2q-57 0 -103.5 44.5t-58.5 112.5l-16 98l-37 -121q-5 -16 -9 -32q-4 -37 -32 -65t-64 -39q-18 -5 -32 -5q-49 0 -92 39t-62 102l-38 121l-16 -98q-12 -69 -58 -113t-105 -44h-11q-8 2 -12 2
q-56 10 -90.5 58.5t-34.5 114.5q0 18 3 36l110 624q13 69 59.5 113.5t103.5 44.5l-5 -1q52 0 98 -38t66 -103l75 -247l76 247q19 66 62.5 104t95.5 38q58 0 104.5 -44.5t58.5 -113.5z" />
    <glyph glyph-name="N" unicode="N" horiz-adv-x="982" 
d="M728 0q75 0 127 53t52 129v636q0 75 -52.5 128.5t-126.5 53.5q-75 0 -127.5 -53.5t-52.5 -128.5v-151l-200 246q-25 39 -66.5 63t-87.5 24q-75 0 -127 -53t-52 -129v-636q0 -75 52.5 -128.5t126.5 -53.5q75 0 127.5 53.5t52.5 128.5v132l197 -243q26 -32 59 -49
q43 -22 101 -22h-3z" />
    <glyph glyph-name="O" unicode="O" horiz-adv-x="1049" 
d="M999 500q0 -207 -146.5 -353.5t-353.5 -146.5t-353.5 146.5t-146.5 353.5t146.5 353.5t353.5 146.5t353.5 -146.5t146.5 -353.5zM640 500q0 59 -41 100t-100 41t-100 -41t-41 -100t41 -100t100 -41t100 41t41 100z" />
    <glyph glyph-name="P" unicode="P" horiz-adv-x="818" 
d="M779 634q0 -153 -108 -261t-261 -108l-56 1v-82q0 -78 -46 -131t-119 -53q-75 0 -127.5 53.5t-52.5 130.5v632q0 77 52.5 130.5t127.5 53.5h220q153 0 261.5 -106.5t108.5 -259.5zM493 634q0 35 -25 60t-60 25h-54v-171l54 1q35 0 60 25t25 60z" />
    <glyph glyph-name="Q" unicode="Q" horiz-adv-x="1052" 
d="M638 510q0 57 -40.5 97.5t-97.5 40.5t-97 -40t-40 -98q0 -56 40 -97t97 -41t97.5 40.5t40.5 97.5zM936 287q60 -69 60 -143q0 -55 -37 -91q-38 -41 -102 -41q-76 0 -142 58q-97 -50 -215 -50q-203 0 -346 143t-143 347t143 347t346 143q204 0 347 -143t143 -347
q0 -116 -52 -220z" />
    <glyph glyph-name="R" unicode="R" horiz-adv-x="820" 
d="M775 636q0 -73 -25.5 -136t-73.5 -115l93 -152q22 -37 22 -80q0 -39 -19.5 -75t-55 -57t-77.5 -21q-41 0 -75.5 19t-56.5 57l-118 194h3h-33v-81q0 -77 -48.5 -130t-122.5 -53q-75 0 -127 53t-52 130v629q0 75 52.5 128.5t126.5 53.5h219q152 0 260 -106t108 -258z
M491 636q0 35 -24 60t-60 25h-48v-170l48 1q35 0 59.5 24.5t24.5 59.5z" />
    <glyph glyph-name="S" unicode="S" horiz-adv-x="862" 
d="M711 553q46 -41 70 -93t24 -120q0 -144 -101 -238q-110 -102 -302 -102q-69 0 -127 8.5t-114 30.5q-19 8 -37 15.5t-32 16.5q-39 22 -62 55q-26 37 -26 80q0 61 44.5 112.5t106.5 60.5q16 2 24 2q54 0 90 -26q6 -3 57 -33q34 -20 58 -20q18 0 29.5 5t11.5 23
q0 13 -10.5 21.5t-58.5 20.5l-32 8q-67 19 -119 47q-60 32 -95 74q-33 34 -52.5 81.5t-19.5 100.5q0 141 99 234q110 103 306 103q83 0 147.5 -16t142.5 -62q42 -19 69 -54q31 -40 31 -84q0 -60 -44.5 -106.5t-104.5 -46.5q-21 0 -55 17q-22 12 -43 24q-30 14 -66.5 23
t-48 11.5t-19.5 2.5q-33 0 -33 -23q0 -13 11 -21t33 -15l10 -3q98 -31 148 -57q21 -11 33 -18q38 -21 57 -39z" />
    <glyph glyph-name="T" unicode="T" horiz-adv-x="859" 
d="M809 831q0 70 -53.5 119.5t-129.5 49.5h-434q-75 0 -128.5 -49.5t-53.5 -119.5q0 -71 53 -120t129 -49h37v-480q0 -74 53 -128t127 -54q75 0 127.5 53.5t52.5 128.5v479l37 1q76 0 129.5 49.5t53.5 119.5z" />
    <glyph glyph-name="U" unicode="U" horiz-adv-x="911" 
d="M829 420q0 -172 -121 -296t-293 -124t-293.5 121.5t-121.5 293.5v405q0 74 52 127t126 53t126 -53t52 -127v-424q0 -28 16.5 -46.5t42.5 -18.5q24 0 41.5 19.5t17.5 46.5v423q0 75 51.5 127.5t125.5 52.5t126 -53t52 -127v-400z" />
    <glyph glyph-name="V" unicode="V" horiz-adv-x="942" 
d="M415 13q30 -12 61 -12q52 0 97.5 31t67.5 84l271 638q16 36 16 77q0 52 -26 94.5t-73 62.5q-30 12 -61 12q-52 0 -97.5 -31t-67.5 -84l-128 -298l-126 297q-23 52 -69 83.5t-97 31.5q-30 0 -60 -12q-47 -20 -73 -62.5t-26 -95.5q0 -40 16 -76l271 -638q23 -54 69 -84.5
t100 -30.5z" />
    <glyph glyph-name="W" unicode="W" horiz-adv-x="1328" 
d="M1262 755l-231 -637q-20 -53 -57 -84t-80 -31q-46 0 -86 30t-59 84l-104 285l-107 -288q-19 -54 -57 -84t-83 -30q-26 0 -52 12q-28 15 -51 40q-26 28 -38 61l-231 637q-14 39 -14 77q0 53 22.5 94.5t62.5 61.5q25 13 53 13q43 0 82 -31.5t57 -83.5l108 -296l109 297
q19 53 57.5 84t82.5 31q28 0 53 -13q56 -29 82 -99l108 -297l109 298q20 53 58 83.5t83 30.5q26 0 52 -12q40 -20 62 -62.5t22 -95.5q0 -18 -3 -36.5t-10 -38.5z" />
    <glyph glyph-name="X" unicode="X" horiz-adv-x="916" 
d="M425 769l123 157q59 74 148 74q55 0 98 -34l-2 -2l2 2q61 -47 61 -129q0 -66 -42 -120l-173 -222l169 -222q40 -52 40 -116q0 -80 -59 -125l2 -2l-2 2q-41 -32 -95 -32q-41 0 -78.5 18.5t-64.5 53.5l-124 160l-126 -160q-28 -35 -65.5 -53.5t-78.5 -18.5q-53 0 -94 32
l-2 -2l2 2q-29 23 -44.5 55.5t-15.5 70.5q0 63 41 115l176 223l-176 225q-41 52 -41 115q0 80 60 126l-2 2l2 -2q41 32 95 32q41 0 78.5 -18.5t64.5 -53.5l123 -157v4z" />
    <glyph glyph-name="Y" unicode="Y" horiz-adv-x="923" 
d="M825 701l-196 -228v-9v-282q0 -74 -53 -128t-127 -54q-75 0 -127.5 53.5t-52.5 128.5v282l-26 24l-185 213q-45 53 -45 121q0 37 15.5 72.5t45.5 61.5q24 21 55 32.5t62 11.5q84 0 138 -63l113 -129l112 129q26 31 62.5 47t75.5 16q33 0 62 -10.5t57 -35t43.5 -59.5
t15.5 -74q0 -67 -45 -120z" />
    <glyph glyph-name="Z" unicode="Z" horiz-adv-x="828" 
d="M567 432l183 264q36 51 36 113q0 16 -3 33q0 66 -53 112t-129 46h-409q-76 0 -129.5 -47t-53.5 -114t53.5 -113.5t129.5 -46.5h117l-261 -375q-36 -53 -36 -115q0 -16 3 -31q0 -65 53.5 -111.5t129.5 -46.5h408q76 0 129.5 47t53.5 114t-53.5 113.5t-129.5 46.5h-117
l78 112v-1z" />
    <glyph glyph-name="backslash" unicode="\" horiz-adv-x="783" 
d="M737 141q17 -34 17 -76q0 -47 -23 -87.5t-65 -63.5q-33 -17 -72 -17q-47 0 -85 23.5t-59 67.5l-423 811q-17 37 -17 75q0 47 23.5 88.5t64.5 63.5q16 9 34 13t37 4q46 0 85 -24t61 -68z" />
    <glyph glyph-name="a" unicode="a" horiz-adv-x="788" 
d="M714 208q12 -29 12 -59q0 -44 -25.5 -82.5t-68.5 -55.5q-28 -11 -56 -11q-42 0 -77 21t-56 60h-141q-20 -37 -57 -59t-78 -22q-27 0 -55 11q-43 17 -68.5 55.5t-25.5 84.5q0 28 12 57l200 496q16 39 50 64.5t75 30.5q6 1 18 1q46 0 84.5 -25.5t56.5 -70.5zM418 323
l-34 88l-35 -88h69z" />
    <glyph glyph-name="b" unicode="b" horiz-adv-x="688" 
d="M644 230q0 -96 -67 -163t-163 -67h-278h-2q-52 0 -89 43t-37 103v508q0 61 36.5 103.5t89.5 42.5h261q83 0 141 -58t58 -141q0 -49 -21.5 -91t-60.5 -70q60 -29 96 -85t36 -125zM361 533q0 23 -16 39t-39 16h-46v-111h46q23 0 39 16t16 40zM369 257q0 26 -18 44t-45 18
h-47v-125h47q27 0 45 18t18 45z" />
    <glyph glyph-name="c" unicode="c" horiz-adv-x="832" 
d="M739 667q29 -39 29 -89q0 -69 -54 -108q-34 -25 -76 -25q-29 0 -55 11t-49 35q-38 36 -90 36q-7 0 -21 -2q-47 -8 -76 -44t-29 -82q0 -7 2 -21q8 -46 43.5 -75.5t81.5 -29.5q8 0 22 2q32 6 57 26q42 34 95 34q42 0 76 -23q55 -38 55 -109q0 -47 -28 -87l-4 -8
q-88 -81 -204 -102q-36 -6 -70 -6q-144 0 -256 92.5t-138 237.5q-6 36 -6 70q0 144 93 256t237 138q36 6 70 6q83 0 159 -33.5t132 -93.5z" />
    <glyph glyph-name="d" unicode="d" horiz-adv-x="784" 
d="M727 400q0 -164 -116 -281t-281 -117l-186 -1l-10 -1q-51 0 -86.5 42.5t-35.5 102.5v510q0 60 35.5 102.5t86.5 42.5l193 -2q167 0 283.5 -116.5t116.5 -281.5zM461 400q0 55 -38 93t-93 38h-74v-262h74q54 0 92.5 38.5t38.5 92.5z" />
    <glyph glyph-name="e" unicode="e" horiz-adv-x="616" 
d="M426 -4h-254q-60 0 -102.5 41.5t-42.5 101.5v511q0 60 42 103t101 43h256q60 0 103 -38t43 -91t-42.5 -90.5t-103.5 -37.5h-112v-49h63q50 0 83.5 -26.5t33.5 -70.5q0 -43 -33.5 -67.5t-83.5 -24.5h-63v-48h112q61 0 103.5 -37.5t42.5 -90.5q0 -54 -42.5 -91.5
t-103.5 -37.5z" />
    <glyph glyph-name="f" unicode="f" horiz-adv-x="595" 
d="M306 490h63q49 0 83 -28t34 -73q0 -43 -33 -66.5t-84 -23.5h-63v-153q0 -60 -42 -103t-101 -43q-61 0 -102.5 42.5t-41.5 103.5v511q0 59 43 101t102 42h254q60 0 103 -38t43 -91t-42.5 -90.5t-103.5 -37.5h-112v-53z" />
    <glyph glyph-name="g" unicode="g" horiz-adv-x="819" 
d="M777 385q0 -166 -103.5 -275.5t-267.5 -109.5q-166 0 -283 117t-117 283t117 283t283 117q73 0 137.5 -24t118.5 -69q50 -37 50 -102q0 -53 -37 -90t-90 -37q-25 0 -46 8.5t-40.5 26t-43.5 27t-53 9.5q-61 0 -104.5 -43.5t-43.5 -104.5q0 -63 43 -106t105 -43
q32 0 61 13.5t51 37.5h-111q-31 0 -52 21t-21 53q0 30 21 52t52 22h300q29 0 50 -19t24 -47z" />
    <glyph glyph-name="h" unicode="h" horiz-adv-x="693" 
d="M374 301v-157q0 -60 41 -102t101 -42q59 0 100.5 42.5t41.5 101.5v507q0 60 -41 102t-101 42q-59 0 -100.5 -42.5t-41.5 -101.5v-161h-84v166q0 59 -41.5 101.5t-101.5 42.5q-59 0 -100.5 -42.5t-41.5 -101.5v-507q0 -60 41 -102t101 -42q59 0 101 42t42 102v150v2h84
h-84h84z" />
    <glyph glyph-name="i" unicode="i" horiz-adv-x="368" 
d="M314 145q0 -59 -42 -102t-102 -43q-59 0 -101 42t-42 103v510q0 59 42 102t101 43q60 0 102 -42t42 -103v-510z" />
    <glyph glyph-name="j" unicode="j" 
d="M663 336q0 -138 -97 -237t-234 -99q-139 0 -235.5 91.5t-96.5 228.5q0 59 41 101t101 42q59 0 101 -42t42 -102v-14q0 -20 13 -30t34 -10q19 0 33 16t14 37v338q0 60 41 102t101 42q59 0 100.5 -42.5t41.5 -101.5v-320z" />
    <glyph glyph-name="k" unicode="k" horiz-adv-x="686" 
d="M294 236l92 -166q18 -33 50 -51.5t69 -18.5q33 0 64 17t49.5 49.5t18.5 67.5q0 16 -4 33.5t-13 32.5l-153 276l108 94q26 23 40 53t14 60q0 45 -28 77q-34 40 -92 40q-55 0 -100 -39l-116 -105q0 59 -41.5 101.5t-101.5 42.5q-59 0 -101 -42t-42 -102v-502q0 -59 42 -102
t101 -43t101 42t42 103v84z" />
    <glyph glyph-name="l" unicode="l" horiz-adv-x="600" 
d="M290 257v398q0 59 -42 102t-102 43q-59 0 -101 -42t-42 -103v-510q0 -59 42 -102t101 -43h253q59 0 102 38t43 92q0 53 -42 90t-103 37h-109z" />
    <glyph glyph-name="m" unicode="m" horiz-adv-x="888" 
d="M830 174q3 -15 3 -30q0 -51 -28.5 -90.5t-71.5 -46.5q-12 -2 -19 -2q-46 0 -83 35.5t-47 90.5l-13 79l-29 -97l-8 -26q-3 -29 -25 -52t-51 -31q-12 -4 -26 -4q-38 0 -73 31t-50 82l-31 97l-12 -79q-11 -56 -47 -91t-83 -35q-7 0 -19 2q-44 8 -72 47t-28 92q0 18 2 28
l88 500q10 54 47.5 90t83.5 36l-4 -1q41 0 78 -30.5t53 -82.5l60 -197l61 197q15 53 49.5 83.5t76.5 30.5q46 0 83.5 -35.5t46.5 -90.5z" />
    <glyph glyph-name="n" unicode="n" horiz-adv-x="770" 
d="M582 0q60 0 102 43t42 103v508q0 60 -42 103t-102 43t-102 -43t-42 -103v-120l-160 196q-20 32 -52.5 51t-70.5 19q-59 0 -101 -43t-42 -103v-508q0 -60 42 -103t101 -43q60 0 102 43t42 103v105l158 -194q22 -27 47 -40q33 -17 81 -17h-3z" />
    <glyph glyph-name="o" unicode="o" horiz-adv-x="848" 
d="M799 400q0 -166 -117 -283t-283 -117t-283 117t-117 283t117 283t283 117t283 -117t117 -283zM512 400q0 47 -33 80t-80 33t-80 -33t-33 -80t33 -80t80 -33t80 33t33 80z" />
    <glyph glyph-name="p" unicode="p" horiz-adv-x="672" 
d="M623 507q0 -123 -86 -209t-209 -86l-45 1v-66q0 -63 -36.5 -105t-95.5 -42q-60 0 -102 43t-42 104v506q0 61 42 104t102 43h176q123 0 209.5 -85.5t86.5 -207.5zM394 507q0 29 -19.5 48.5t-48.5 19.5h-43v-137l43 1q28 0 48 20t20 48z" />
    <glyph glyph-name="q" unicode="q" horiz-adv-x="864" 
d="M510 408q0 46 -32 78t-78 32t-78 -32t-32 -78t32 -78t78 -32t78 32t32 78zM767 42q-29 -32 -81 -32q-29 0 -58.5 11.5t-55.5 34.5q-78 -40 -172 -40q-161 0 -276 115t-115 277t114 277t277 115t277.5 -114.5t114.5 -277.5q0 -94 -42 -176q46 -55 46 -116q0 -45 -29 -74z
" />
    <glyph glyph-name="r" unicode="r" horiz-adv-x="672" 
d="M620 509q0 -58 -20.5 -109t-58.5 -92l74 -122q18 -30 18 -64q0 -32 -15.5 -60t-44.5 -45t-62 -17q-32 0 -60 16t-45 45l-95 155h3h-27v-65q0 -61 -38.5 -103.5t-98.5 -42.5t-101.5 42.5t-41.5 103.5v503q0 60 42 103t101 43h176q123 0 208.5 -84.5t85.5 -206.5zM393 509
q0 27 -19.5 47.5t-47.5 20.5h-39v-136l39 1q28 0 47.5 19.5t19.5 47.5z" />
    <glyph glyph-name="s" unicode="s" 
d="M569 442q36 -32 55.5 -74t19.5 -96q0 -115 -81 -190q-89 -82 -241 -82q-57 0 -102 6.5t-91 24.5q-15 6 -29.5 12t-25.5 14q-31 17 -51 45.5t-20 62.5q0 50 35.5 90.5t85.5 47.5q12 2 19 2q42 0 72 -21q5 -2 46 -26q27 -16 46 -16q15 0 24 4t9 18q-1 14 -12.5 20t-42.5 14
l-26 6q-54 15 -95 37q-48 26 -76 60q-27 27 -42.5 64.5t-15.5 80.5q0 113 79 187q89 83 245 83q67 0 118.5 -13t113.5 -49q34 -16 57 -45.5t23 -65.5q0 -48 -35 -85t-84 -37q-16 0 -44 14q-28 16 -34 19q-24 11 -53 18t-38.5 9t-16.5 2q-26 0 -26 -18q0 -10 9 -17t26 -12
l8 -2q36 -11 68 -23.5t50 -22t27 -14.5q31 -18 46 -32z" />
    <glyph glyph-name="t" unicode="t" horiz-adv-x="696" 
d="M647 665q0 56 -42.5 95.5t-103.5 39.5h-347q-61 0 -103.5 -39.5t-42.5 -95.5t42.5 -95.5t103.5 -39.5h29v-384q0 -60 42 -103t102 -43t102 43t42 103v383l30 1q61 0 103.5 39t42.5 96z" />
    <glyph glyph-name="u" unicode="u" 
d="M663 336q0 -138 -97 -237t-234 -99q-138 0 -235 97t-97 235v324q0 60 41 102t101 42q59 0 101 -42t42 -102v-339q0 -21 13.5 -36.5t33.5 -15.5q19 0 33 16t14 37v338q0 60 41 102t101 42q59 0 100.5 -42.5t41.5 -101.5v-320z" />
    <glyph glyph-name="v" unicode="v" horiz-adv-x="792" 
d="M332 10q24 -9 49 -9q43 0 78.5 24t53.5 68l217 510q12 30 12 61q0 43 -20.5 76.5t-58.5 49.5q-23 10 -49 10q-42 0 -77.5 -24.5t-54.5 -67.5l-102 -238l-101 237q-19 43 -54.5 67.5t-78.5 24.5q-25 0 -48 -9q-37 -16 -58 -50.5t-21 -75.5q0 -33 13 -62l217 -510
q18 -43 55 -67.5t80 -24.5z" />
    <glyph glyph-name="w" unicode="w" horiz-adv-x="1088" 
d="M1010 604l-185 -510q-16 -43 -45.5 -67.5t-64.5 -24.5q-37 0 -69 24.5t-47 67.5l-83 228l-86 -231q-15 -41 -46 -66t-66 -25q-22 0 -43 11t-40.5 32t-28.5 47l-185 510q-11 31 -11 62q0 41 18 75t50 49q19 10 42 10q35 0 65.5 -24.5t45.5 -66.5l87 -237l87 238
q16 43 46 67t66 24q22 0 42 -10q45 -22 66 -79l86 -238l87 239q16 41 47 66t66 25q22 0 42 -10q31 -16 49 -50.5t18 -76.5q0 -32 -10 -59z" />
    <glyph glyph-name="x" unicode="x" horiz-adv-x="760" 
d="M340 615l98 126q47 59 119 59q43 0 78 -27q24 -18 36.5 -45t12.5 -59q0 -52 -34 -95l-138 -178l135 -178q32 -41 32 -93q0 -29 -12 -55t-35 -44l2 -2l-2 2q-32 -26 -76 -26q-34 0 -62.5 14t-51.5 44l-100 128l-100 -128q-44 -58 -115 -58q-44 0 -76 26q-23 17 -35.5 44
t-12.5 57q0 50 33 91l141 179l-141 180q-33 41 -33 92q0 64 48 101q16 13 35.5 19t40.5 6q33 0 63 -14.5t52 -42.5l98 -126v3z" />
    <glyph glyph-name="y" unicode="y" horiz-adv-x="735" 
d="M660 561l-157 -183v-7v-225q0 -60 -42 -103t-102 -43t-102 43t-42 103v225l-21 19l-148 171q-36 42 -36 97q0 64 49 107q39 35 94 35q66 0 110 -50l91 -104l89 104q44 50 111 50q54 0 93 -35q25 -21 37 -48.5t12 -59.5q0 -54 -36 -96z" />
    <glyph glyph-name="z" unicode="z" horiz-adv-x="680" 
d="M454 346l146 211q29 41 29 90q0 13 -3 27q0 52 -42 89t-103 37h-327q-61 0 -104 -38t-43 -91q0 -52 43 -90t104 -38h93l-209 -300q-28 -40 -28 -91q0 -18 2 -26q0 -52 43 -89t103 -37h327q60 0 103 38t43 91t-42.5 90.5t-103.5 37.5h-94z" />
    <glyph glyph-name="bullet" unicode="&#x2022;" horiz-adv-x="409" 
d="M153 670q17 4 39 4q66 0 119 -42t67 -107q4 -17 4 -39q0 -67 -41.5 -119t-107.5 -66q-17 -4 -39 -4q-67 0 -119.5 41.5t-66.5 106.5q-4 17 -4 39q0 66 42 119t107 67z" />
    <glyph glyph-name="registered" unicode="&#xae;" horiz-adv-x="811" 
d="M120 828q-53 -55 -80.5 -125t-27.5 -144q0 -78 29.5 -149.5t86 -126t126 -82t144.5 -27.5q78 0 149.5 29.5t125.5 86.5t81.5 126.5t27.5 143.5q0 164 -117 277q-55 53 -124.5 80.5t-143.5 27.5q-78 0 -149.5 -29.5t-127.5 -87.5zM203 745q39 40 91 61.5t107 21.5
q109 0 186 -75q41 -40 62.5 -91.5t21.5 -106.5q0 -53 -18.5 -100t-57.5 -87t-91 -61.5t-106 -21.5q-53 0 -100 18.5t-87.5 57.5t-62 90.5t-21.5 106.5q0 53 18.5 100t57.5 87zM550 608q0 -62 -36 -95l34 -55q8 -16 8 -30q0 -35 -27 -49q-14 -8 -27 -8q-15 0 -29 8t-23 21
l-41 70h1h-19v-30q0 -28 -15.5 -46.5t-43.5 -18.5q-27 0 -48 19t-21 46v238q0 26 20 44t49 18h81q56 0 96.5 -38.5t40.5 -93.5zM446 608q0 13 -9.5 21.5t-23.5 8.5h-22v-61h22q12 0 22.5 8.5t10.5 22.5z" />
    <glyph glyph-name="copyright" unicode="&#xa9;" horiz-adv-x="862" 
d="M572 690q14 -17 14 -40q0 -29 -23 -46q-16 -11 -34 -11q-27 0 -45 20q-18 16 -39 16q-3 0 -17 -2.5t-27 -17.5t-13 -36q0 -7 2.5 -20t20.5 -26t41 -10q14 3 27 12q19 16 43 16q17 0 32 -10q24 -18 24 -50q0 -20 -12 -37l-2 -3q-36 -36 -89 -45q-17 -3 -32 -3
q-64 0 -113 41t-60 105q-1 8 -1.5 16.5t-0.5 13.5q0 64 40.5 113t105.5 60q15 3 31 3q75 0 126 -56zM158 844q-53 -55 -80.5 -125t-27.5 -144q0 -78 29.5 -149.5t86 -126t126 -82t144.5 -27.5q78 0 149.5 29.5t125.5 86.5t81.5 126.5t27.5 143.5q0 164 -117 277
q-55 53 -124.5 80.5t-143.5 27.5q-78 0 -149.5 -29.5t-127.5 -87.5zM244 764q39 40 91 61.5t107 21.5q109 0 187 -75q40 -39 61.5 -91t21.5 -106t-18.5 -101t-57.5 -87q-81 -83 -197 -83q-53 0 -100 18.5t-87.5 57.5t-62 90.5t-21.5 106.5q0 53 18.5 100t57.5 87z" />
    <glyph glyph-name="trademark" unicode="&#x2122;" horiz-adv-x="740" 
d="M660 654q1 -4 1 -13q0 -22 -12.5 -38.5t-31.5 -20.5q-22 -4 -40.5 12t-23.5 43l-5 33l-12 -42l-4 -11q-5 -28 -33 -36q-8 -2 -11 -2q-17 0 -32 14t-22 35l-12 42l-7 -33q-4 -26 -23 -42.5t-41 -12.5q-18 4 -30 20.5t-12 38.5q0 9 1 13l38 217q4 24 20 39.5t36 15.5
q38 2 54 -49l26 -86l28 86q6 21 21.5 35t32.5 14q19 0 35 -15.5t21 -39.5zM317 870q0 24 -18.5 40.5t-45.5 16.5h-150q-26 0 -44 -17t-18 -40q0 -25 18 -42t44 -17h12v-166q0 -26 19 -45t44 -19q27 0 45 18t18 46v166h12q27 0 45.5 16.5t18.5 42.5z" />
  </font>
</defs>
</svg>
